<?xml version="1.0" encoding="UTF-8"?>
<svg id="Layer_2" xmlns="http://www.w3.org/2000/svg" viewBox="0 0 127.06 127.06">
  <defs>
    <style>
      .cls-1 {
        fill: #232325;
      }

      .cls-2 {
        fill: #e4007c;
      }
    </style>
  </defs>
  <g id="Layer_1-2" data-name="Layer_1">
    <g>
      <path class="cls-1" d="M37.01,37.01c10.96-10.96,27.02-13.72,40.55-8.27,1.03.42,2.21.15,3-.64l15.22-15.22c1.31-1.31,1.03-3.51-.57-4.43C70.92-5.54,39.37-2.16,18.61,18.61-2.16,39.37-5.54,70.92,8.45,95.21c.92,1.6,3.13,1.87,4.43.57l15.22-15.22c.79-.79,1.05-1.97.64-3-5.45-13.53-2.69-29.59,8.27-40.55Z"/>
      <path class="cls-2" d="M108.45,108.45c20.76-20.76,24.15-52.32,10.16-76.6-.92-1.6-3.13-1.87-4.43-.57l-15.22,15.22c-.79.79-1.05,1.97-.64,3,5.45,13.53,2.69,29.59-8.27,40.55-10.96,10.96-27.02,13.72-40.55,8.27-1.03-.42-2.21-.15-3,.64l-15.22,15.22c-1.31,1.31-1.03,3.51.57,4.43,24.28,13.99,55.84,10.6,76.6-10.16Z"/>
    </g>
  </g>
</svg>